<svg width="32" height="32" viewBox="0 0 32 32" fill="none" xmlns="http://www.w3.org/2000/svg">
<path opacity="0.1" fill-rule="evenodd" clip-rule="evenodd" d="M0 16C0 7.16344 7.16344 0 16 0C24.8366 0 32 7.16344 32 16C32 24.8366 24.8366 32 16 32C7.16344 32 0 24.8366 0 16Z" fill="white"/>
<path d="M19.1743 9.98875H21V7.12675C20.685 7.08775 19.6018 7 18.3402 7C15.7079 7 13.9048 8.49025 13.9048 11.2292V13.75H11V16.9495H13.9048V25H17.4661V16.9502H20.2534L20.6959 13.7508H17.4653V11.5465C17.4661 10.6218 17.7428 9.98875 19.1743 9.98875Z" fill="white"/>
</svg>
