<svg width="229" height="30" viewBox="0 0 229 30" fill="none" xmlns="http://www.w3.org/2000/svg">
<path d="M92 9.8V21H89.808V13.736L86.656 18.936H86.4L83.248 13.752V21H81.04V9.8H83.312L86.528 15.096L89.728 9.8H92ZM100.807 20.008C99.9855 20.8187 98.9829 21.224 97.7989 21.224C96.6149 21.224 95.6122 20.8187 94.7909 20.008C93.9802 19.1867 93.5749 18.184 93.5749 17C93.5749 15.816 93.9802 14.8187 94.7909 14.008C95.6122 13.1867 96.6149 12.776 97.7989 12.776C98.9829 12.776 99.9855 13.1867 100.807 14.008C101.628 14.8187 102.039 15.816 102.039 17C102.039 18.184 101.628 19.1867 100.807 20.008ZM96.2469 18.584C96.6629 19 97.1802 19.208 97.7989 19.208C98.4175 19.208 98.9349 19 99.3509 18.584C99.7669 18.168 99.9749 17.64 99.9749 17C99.9749 16.36 99.7669 15.832 99.3509 15.416C98.9349 15 98.4175 14.792 97.7989 14.792C97.1802 14.792 96.6629 15 96.2469 15.416C95.8415 15.832 95.6389 16.36 95.6389 17C95.6389 17.64 95.8415 18.168 96.2469 18.584ZM108.442 13H110.714L107.674 21H105.322L102.282 13H104.554L106.49 18.6L108.442 13ZM113.141 17.848C113.418 18.8507 114.17 19.352 115.397 19.352C116.186 19.352 116.784 19.0853 117.189 18.552L118.853 19.512C118.064 20.6533 116.901 21.224 115.365 21.224C114.042 21.224 112.981 20.824 112.181 20.024C111.381 19.224 110.981 18.216 110.981 17C110.981 15.7947 111.376 14.792 112.165 13.992C112.954 13.1813 113.968 12.776 115.205 12.776C116.378 12.776 117.344 13.1813 118.101 13.992C118.869 14.8027 119.253 15.8053 119.253 17C119.253 17.2667 119.226 17.5493 119.173 17.848H113.141ZM113.109 16.248H117.189C117.072 15.704 116.826 15.2987 116.453 15.032C116.09 14.7653 115.674 14.632 115.205 14.632C114.65 14.632 114.192 14.776 113.829 15.064C113.466 15.3413 113.226 15.736 113.109 16.248ZM129.27 14.984H127.462V18.312C127.462 18.5893 127.531 18.792 127.67 18.92C127.809 19.048 128.011 19.1227 128.278 19.144C128.545 19.1547 128.875 19.1493 129.27 19.128V21C127.851 21.16 126.849 21.0267 126.262 20.6C125.686 20.1733 125.398 19.4107 125.398 18.312V14.984H124.006V13H125.398V11.384L127.462 10.76V13H129.27V14.984ZM137.291 20.008C136.47 20.8187 135.467 21.224 134.283 21.224C133.099 21.224 132.097 20.8187 131.275 20.008C130.465 19.1867 130.059 18.184 130.059 17C130.059 15.816 130.465 14.8187 131.275 14.008C132.097 13.1867 133.099 12.776 134.283 12.776C135.467 12.776 136.47 13.1867 137.291 14.008C138.113 14.8187 138.523 15.816 138.523 17C138.523 18.184 138.113 19.1867 137.291 20.008ZM132.731 18.584C133.147 19 133.665 19.208 134.283 19.208C134.902 19.208 135.419 19 135.835 18.584C136.251 18.168 136.459 17.64 136.459 17C136.459 16.36 136.251 15.832 135.835 15.416C135.419 15 134.902 14.792 134.283 14.792C133.665 14.792 133.147 15 132.731 15.416C132.326 15.832 132.123 16.36 132.123 17C132.123 17.64 132.326 18.168 132.731 18.584ZM149.383 21.224C147.698 21.224 146.306 20.664 145.207 19.544C144.109 18.424 143.559 17.0427 143.559 15.4C143.559 13.7467 144.109 12.3653 145.207 11.256C146.306 10.136 147.698 9.576 149.383 9.576C150.397 9.576 151.33 9.816 152.183 10.296C153.047 10.7653 153.719 11.4053 154.199 12.216L152.295 13.32C152.018 12.8187 151.623 12.4293 151.111 12.152C150.599 11.864 150.023 11.72 149.383 11.72C148.295 11.72 147.415 12.0613 146.743 12.744C146.082 13.4267 145.751 14.312 145.751 15.4C145.751 16.4773 146.082 17.3573 146.743 18.04C147.415 18.7227 148.295 19.064 149.383 19.064C150.023 19.064 150.599 18.9253 151.111 18.648C151.634 18.36 152.029 17.9707 152.295 17.48L154.199 18.584C153.719 19.3947 153.053 20.04 152.199 20.52C151.346 20.9893 150.407 21.224 149.383 21.224ZM161.587 13H163.651V21H161.587V20.056C160.968 20.8347 160.099 21.224 158.979 21.224C157.912 21.224 156.995 20.8187 156.227 20.008C155.469 19.1867 155.09 18.184 155.09 17C155.09 15.816 155.469 14.8187 156.227 14.008C156.995 13.1867 157.912 12.776 158.979 12.776C160.099 12.776 160.968 13.1653 161.587 13.944V13ZM157.779 18.632C158.195 19.048 158.723 19.256 159.363 19.256C160.003 19.256 160.531 19.048 160.947 18.632C161.373 18.2053 161.587 17.6613 161.587 17C161.587 16.3387 161.373 15.8 160.947 15.384C160.531 14.9573 160.003 14.744 159.363 14.744C158.723 14.744 158.195 14.9573 157.779 15.384C157.363 15.8 157.155 16.3387 157.155 17C157.155 17.6613 157.363 18.2053 157.779 18.632ZM167.586 14.376C167.778 13.864 168.093 13.48 168.53 13.224C168.978 12.968 169.474 12.84 170.018 12.84V15.144C169.389 15.0693 168.823 15.1973 168.322 15.528C167.831 15.8587 167.586 16.408 167.586 17.176V21H165.522V13H167.586V14.376ZM175.881 12.776C176.959 12.776 177.876 13.1867 178.633 14.008C179.401 14.8187 179.785 15.816 179.785 17C179.785 18.184 179.401 19.1867 178.633 20.008C177.876 20.8187 176.959 21.224 175.881 21.224C174.761 21.224 173.897 20.8347 173.289 20.056V24.2H171.225V13H173.289V13.944C173.897 13.1653 174.761 12.776 175.881 12.776ZM173.913 18.632C174.329 19.048 174.857 19.256 175.497 19.256C176.137 19.256 176.665 19.048 177.081 18.632C177.508 18.2053 177.721 17.6613 177.721 17C177.721 16.3387 177.508 15.8 177.081 15.384C176.665 14.9573 176.137 14.744 175.497 14.744C174.857 14.744 174.329 14.9573 173.913 15.384C173.497 15.8 173.289 16.3387 173.289 17C173.289 17.6613 173.497 18.2053 173.913 18.632ZM187.321 13H189.385V21H187.321V20.056C186.702 20.8347 185.833 21.224 184.713 21.224C183.646 21.224 182.729 20.8187 181.961 20.008C181.204 19.1867 180.825 18.184 180.825 17C180.825 15.816 181.204 14.8187 181.961 14.008C182.729 13.1867 183.646 12.776 184.713 12.776C185.833 12.776 186.702 13.1653 187.321 13.944V13ZM183.513 18.632C183.929 19.048 184.457 19.256 185.097 19.256C185.737 19.256 186.265 19.048 186.681 18.632C187.108 18.2053 187.321 17.6613 187.321 17C187.321 16.3387 187.108 15.8 186.681 15.384C186.265 14.9573 185.737 14.744 185.097 14.744C184.457 14.744 183.929 14.9573 183.513 15.384C183.097 15.8 182.889 16.3387 182.889 17C182.889 17.6613 183.097 18.2053 183.513 18.632ZM195.833 14.984H194.025V18.312C194.025 18.5893 194.094 18.792 194.233 18.92C194.371 19.048 194.574 19.1227 194.841 19.144C195.107 19.1547 195.438 19.1493 195.833 19.128V21C194.414 21.16 193.411 21.0267 192.825 20.6C192.249 20.1733 191.961 19.4107 191.961 18.312V14.984H190.569V13H191.961V11.384L194.025 10.76V13H195.833V14.984ZM201.736 12.776C202.61 12.776 203.33 13.0693 203.896 13.656C204.472 14.2427 204.76 15.0533 204.76 16.088V21H202.696V16.344C202.696 15.8107 202.552 15.4053 202.264 15.128C201.976 14.84 201.592 14.696 201.112 14.696C200.578 14.696 200.152 14.8613 199.832 15.192C199.512 15.5227 199.352 16.0187 199.352 16.68V21H197.288V9.8H199.352V13.896C199.853 13.1493 200.648 12.776 201.736 12.776ZM207.546 12.04C207.205 12.04 206.906 11.9173 206.65 11.672C206.405 11.416 206.282 11.1173 206.282 10.776C206.282 10.4347 206.405 10.136 206.65 9.88C206.906 9.624 207.205 9.496 207.546 9.496C207.898 9.496 208.197 9.624 208.442 9.88C208.698 10.136 208.826 10.4347 208.826 10.776C208.826 11.1173 208.698 11.416 208.442 11.672C208.197 11.9173 207.898 12.04 207.546 12.04ZM206.522 21V13H208.586V21H206.522ZM216.555 13H218.619V21H216.555V20.056C215.937 20.8347 215.067 21.224 213.947 21.224C212.881 21.224 211.963 20.8187 211.195 20.008C210.438 19.1867 210.059 18.184 210.059 17C210.059 15.816 210.438 14.8187 211.195 14.008C211.963 13.1867 212.881 12.776 213.947 12.776C215.067 12.776 215.937 13.1653 216.555 13.944V13ZM212.747 18.632C213.163 19.048 213.691 19.256 214.331 19.256C214.971 19.256 215.499 19.048 215.915 18.632C216.342 18.2053 216.555 17.6613 216.555 17C216.555 16.3387 216.342 15.8 215.915 15.384C215.499 14.9573 214.971 14.744 214.331 14.744C213.691 14.744 213.163 14.9573 212.747 15.384C212.331 15.8 212.123 16.3387 212.123 17C212.123 17.6613 212.331 18.2053 212.747 18.632ZM224.939 12.776C225.814 12.776 226.534 13.0693 227.099 13.656C227.675 14.2427 227.963 15.0533 227.963 16.088V21H225.899V16.344C225.899 15.8107 225.755 15.4053 225.467 15.128C225.179 14.84 224.795 14.696 224.315 14.696C223.782 14.696 223.355 14.8613 223.035 15.192C222.715 15.5227 222.555 16.0187 222.555 16.68V21H220.491V13H222.555V13.896C223.056 13.1493 223.851 12.776 224.939 12.776Z" fill="#3A3A3A"/>
<path d="M35.5204 29.5H25.5601L14.7341 11.6588L14.3066 10.9544L13.8791 11.6588L11.5887 15.4336L11.4312 15.6931L11.5888 15.9525L19.8176 29.5H9.74438L6.82599 24.6908L6.39852 23.9864L5.97108 24.6908L3.05297 29.5H0.88826L6.39855 20.4192L10.7027 27.5119L10.8487 27.7525H11.1301H15.7024H16.5911L16.1297 26.993L9.26636 15.6935L14.3066 7.38726L26.5184 27.5119L26.6644 27.7525H26.9459H31.4073H32.2956L31.8348 26.9931L17.122 2.74744L18.2044 0.963797L25.5727 13.1064L26.0001 13.8108L26.4276 13.1064L29.898 7.38735L42.1097 27.5119L42.2557 27.7525H42.5371H46.9984H47.8866L47.4258 26.9931L32.7133 2.74754L33.7957 0.963972L51.1117 29.5H41.1515L30.3254 11.6589L29.898 10.9545L29.4705 11.6589L27.2397 15.3349L27.0823 15.5943L27.2397 15.8537L35.5204 29.5Z" fill="#EDEDF5" stroke="black" stroke-linecap="round"/>
</svg>
