<svg width="16" height="12" viewBox="0 0 16 12" fill="none" xmlns="http://www.w3.org/2000/svg">
<path fill-rule="evenodd" clip-rule="evenodd" d="M14.2844 0H1.46562C0.656182 0 0 0.656182 0 1.46562C0 1.95566 0.244907 2.41327 0.652641 2.68509L1.54143 3.27762L6.62692 6.66795C7.3827 7.1718 8.3673 7.1718 9.12308 6.66795L14.2086 3.27762L15.0974 2.68509C15.5051 2.41327 15.75 1.95566 15.75 1.46562C15.75 0.656182 15.0938 0 14.2844 0ZM0.375 5.25C0.375 5.09341 0.390996 4.94056 0.421443 4.79299C0.507328 4.37672 1.00063 4.26917 1.35428 4.50493L6.00289 7.60401C7.13655 8.35978 8.61345 8.35978 9.74711 7.60401L14.3957 4.50493C14.7494 4.26917 15.2427 4.37672 15.3286 4.79299C15.359 4.94056 15.375 5.09341 15.375 5.25V10.5C15.375 11.3284 14.7034 12 13.875 12H1.875C1.04657 12 0.375 11.3284 0.375 10.5V5.25Z" fill="white"/>
</svg>
