<svg width="16" height="16" viewBox="0 0 16 16" fill="none" xmlns="http://www.w3.org/2000/svg">
<path d="M11.4309 11.0671L10.9154 11.8403C10.8125 11.9947 10.6764 12.1264 10.4971 12.1738C9.90962 12.329 8.35006 12.3991 5.97566 10.0247C3.60127 7.65029 3.67135 6.0907 3.82657 5.50326C3.87396 5.32393 4.00565 5.18784 4.15999 5.08495L4.93324 4.56945C5.50894 4.18565 5.66451 3.40782 5.28071 2.83212L3.8203 0.641504C3.4853 0.139007 2.83949 -0.0529745 2.2844 0.184924L1.6256 0.467265C1.12514 0.681747 0.716904 1.06668 0.473403 1.55368C0.269966 1.96055 0.112288 2.38901 0.0909242 2.84341C0.0235984 4.27539 0.337595 7.80336 4.26729 11.7331C8.19698 15.6628 11.7249 15.9767 13.1569 15.9094C13.6113 15.888 14.0398 15.7304 14.4466 15.5269C14.9336 15.2834 15.3186 14.8752 15.5331 14.3747L15.8154 13.7159C16.0533 13.1608 15.8613 12.515 15.3588 12.18L13.1682 10.7196C12.5925 10.3358 11.8147 10.4914 11.4309 11.0671Z" fill="white"/>
</svg>
